{
  "title": "MOHENJO DARO (2016) x264 DesiSCR Rip AAC -DDR",
  "uid": 15557577,
  "size": 1475486748,
  "categoryP": "video",
  "categoryS": "movies",
  "magnet": "?xt=urn:btih:563131b55add8c6e6b1e4d9675179638d3fc5a68&amp;dn=MOHENJO+DARO+%282016%29+x264+DesiSCR+Rip+AAC+-DDR&amp;tr=udp%3A%2F%2Ftracker.leechers-paradise.org%3A6969&amp;tr=udp%3A%2F%2Fzer0day.ch%3A1337&amp;tr=udp%3A%2F%2Fopen.demonii.com%3A1337&amp;tr=udp%3A%2F%2Ftracker.coppersurfer.tk%3A6969&amp;tr=udp%3A%2F%2Fexodus.desync.com%3A6969",
  "seeders": 677,
  "leechers": 144,
  "uploader": "SaM",
  "files": 3,
  "time": 1471085501,
  "description": "- BollywooD MoviE -\r\n**- MOHENJO DARO -**\r\n- 2016 -\r\n** ~2CD DesiSCR Rip / x264 / AAC **\r\n\r\n~* SCREENSHOTS *~\r\n \nhttp://extraimago.com/image/wsyq \nhttp://extraimago.com/image/wsyS \nhttp://extraimago.com/image/wsyO \nhttp://extraimago.com/image/wsyE \nhttp://extraimago.com/image/wsy1 \nhttp://extraimago.com/image/wsyc \nhttp://extraimago.com/image/wsy7 \nhttp://extraimago.com/image/wsys \nhttp://extraimago.com/image/wsyn \nhttp://extraimago.com/image/wsyj \nhttp://extraimago.com/image/wsyT \nhttp://extraimago.com/image/wsyN \nhttp://extraimago.com/image/wsy2 \nhttp://extraimago.com/image/wsyw \nhttp://extraimago.com/image/wsya \nhttp://extraimago.com/image/wsy8 \nhttp://extraimago.com/image/wsqf\r\n\r\n\r\n[ Specs ]\r\nGeneral\r\nSource = DesiSCR @ ICTV\r\nFormat : Matroska\r\nFile size : 1.37 GiB\r\nDuration : 2h 34mn\r\nOverall bit rate : 1 263 Kbps\r\nEncoded date : UTC 2016-08-13 01:21:06\r\n\r\nVideo\r\nFormat : AVC\r\nFormat/Info : Advanced Video Codec\r\nFormat profile :   \r\nFormat settings, CABAC : Yes\r\nFormat settings, ReFrames : 8 frames\r\nCodec ID : V_MPEG4/ISO/AVC\r\nDuration : 2h 34mn\r\nBit rate : 1 131 Kbps\r\nWidth : 720 pixels\r\nHeight : 304 pixels\r\nDisplay aspect ratio : 2.35:1\r\nFrame rate mode : Constant\r\nFrame rate : 25.000 fps\r\ncolor space : YUV\r\nChroma subsampling : 4:2:0\r\nBit depth : 8 bits\r\nScan type : Progressive\r\nBits/(Pixel*Frame) : 0.207\r\nStream size : 1.23 GiB (90%)\r\n\r\n\r\n\r\nAudio\r\nFormat : AAC\r\nFormat/Info : Advanced Audio Codec\r\nFormat profile : LC\r\nCodec ID : A_AAC\r\nDuration : 2h 34mn\r\nBit rate : 128 Kbps\r\nChannel(s) : 2 channels\r\nChannel positions : Front: L R\r\nSampling rate : 48.0 KHz\r\nFrame rate : 46.875 fps (1024 spf)\r\nCompression mode : Lossy\r\nDelay relative to video : 9ms\r\nStream size : 142 MiB (10%)\r\nDefault : Yes\r\nForced : No\r\n\r\n\r\nChapters: None on source\r\nSAMPLE : Included",
  "parsed": {
    "xt": "urn:btih:563131b55add8c6e6b1e4d9675179638d3fc5a68",
    "dn": "MOHENJO DARO (2016) x264 DesiSCR Rip AAC -DDR",
    "tr": [
      "udp://exodus.desync.com:6969",
      "udp://open.demonii.com:1337",
      "udp://tracker.coppersurfer.tk:6969",
      "udp://tracker.leechers-paradise.org:6969",
      "udp://zer0day.ch:1337"
    ],
    "infoHash": "563131b55add8c6e6b1e4d9675179638d3fc5a68",
    "infoHashBuffer": {
      "type": "Buffer",
      "data": [
        86,
        49,
        49,
        181,
        90,
        221,
        140,
        110,
        107,
        30,
        77,
        150,
        117,
        23,
        150,
        56,
        211,
        252,
        90,
        104
      ]
    },
    "name": "MOHENJO DARO (2016) x264 DesiSCR Rip AAC -DDR",
    "announce": [
      "udp://exodus.desync.com:6969",
      "udp://open.demonii.com:1337",
      "udp://tracker.coppersurfer.tk:6969",
      "udp://tracker.leechers-paradise.org:6969",
      "udp://zer0day.ch:1337"
    ],
    "urlList": []
  },
  "previous": 101,
  "peers": 100,
  "last_updated": "2016-12-27T00:42:23.309Z"
}